<svg width="167" height="156" viewBox="0 0 167 156" fill="none" xmlns="http://www.w3.org/2000/svg">
    <path
        d="M163.92 45.2524L86.3843 0.946455C85.5475 0.468303 84.6005 0.216797 83.6367 0.216797C82.6729 0.216797 81.7258 0.468303 80.889 0.946455L3.35353 45.2524C2.49429 45.7431 1.78218 46.455 1.29126 47.314C0.800345 48.1731 0.548541 49.148 0.562039 50.1374C0.575537 51.1268 0.853843 52.0944 1.36802 52.9398C1.88219 53.7852 2.61345 54.4774 3.48576 54.9444L81.0212 96.4812C81.8257 96.9122 82.7241 97.1377 83.6367 97.1377C84.5493 97.1377 85.4477 96.9122 86.2521 96.4812L163.788 54.9444C164.66 54.4774 165.391 53.7852 165.905 52.9398C166.42 52.0944 166.698 51.1268 166.711 50.1374C166.725 49.148 166.473 48.1731 165.982 47.314C165.491 46.455 164.779 45.7431 163.92 45.2524ZM83.6367 85.3151L17.5373 49.9046L83.6367 12.1337L149.736 49.9046L83.6367 85.3151Z"
    />
    <path
        d="M86.3057 125.527L161.172 84.3502V71.7085L83.6366 114.353L6.10107 71.7085V84.3502L80.9675 125.527C81.7852 125.976 82.7033 126.212 83.6366 126.212C84.5698 126.212 85.4879 125.976 86.3057 125.527Z"
    />
    <path
        d="M6.10107 114.674L81.0305 154.636C81.8325 155.064 82.7276 155.288 83.6366 155.288C84.5456 155.288 85.4406 155.064 86.2427 154.636L161.172 114.674V102.121L83.6366 143.473L6.10107 102.121V114.674Z"
    />
</svg>
    